<?xml version="1.0" encoding="utf-8"?>
<!-- Generator: Adobe Illustrator 24.1.0, SVG Export Plug-In . SVG Version: 6.00 Build 0)  -->
<svg version="1.1" xmlns="http://www.w3.org/2000/svg" xmlns:xlink="http://www.w3.org/1999/xlink" x="0px" y="0px"
	 viewBox="0 0 1000 1000" style="enable-background:new 0 0 1000 1000;" xml:space="preserve">
<style type="text/css">
	.st0{fill:#E6F6FF;stroke:#231F20;stroke-width:14;stroke-miterlimit:10;}
	.st1{fill:none;stroke:#231F20;stroke-width:14;stroke-miterlimit:10;}
	.st2{fill:#9EDEDE;stroke:#231F20;stroke-width:14;stroke-miterlimit:10;}
	.st3{fill:#B6B6B6;stroke:#231F20;stroke-width:14;stroke-miterlimit:10;}
	.st4{fill:#B6B6B6;stroke:#231F20;stroke-width:9;stroke-miterlimit:10;}
	.st5{fill:#FFFFFF;}
	.st6{fill:#7A7A7A;stroke:#231F20;stroke-width:9;stroke-miterlimit:10;}
	.st7{fill:none;stroke:#231F20;stroke-width:9;stroke-miterlimit:10;}
	.st8{fill:#7A7A7A;stroke:#231F20;stroke-width:12;stroke-miterlimit:10;}
	.st9{fill:none;stroke:#231F20;stroke-width:12;stroke-miterlimit:10;}
	.st10{fill:#7A7A7A;stroke:#231F20;stroke-width:12;stroke-linecap:square;stroke-miterlimit:10;}
	.st11{fill:#9EDEDE;stroke:#231F20;stroke-width:13;stroke-miterlimit:10;}
	.st12{fill:none;stroke:#D1D3D4;stroke-width:20;stroke-linecap:round;stroke-linejoin:round;stroke-miterlimit:10;}
	.st13{fill:none;stroke:#231F20;stroke-width:10;stroke-linecap:round;stroke-miterlimit:10;}
	.st14{fill:none;stroke:#231F20;stroke-width:2;stroke-linecap:round;stroke-linejoin:round;stroke-miterlimit:10;}
	.st15{fill:none;stroke:#231F20;stroke-width:2;stroke-miterlimit:10;}
	.st16{fill:none;stroke:#231F20;stroke-width:3;stroke-miterlimit:10;}
	.st17{fill:#FFFFFF;stroke:#231F20;stroke-width:4;stroke-miterlimit:10;}
	.st18{fill:#FFFFFF;stroke:#231F20;stroke-width:6;stroke-linejoin:round;stroke-miterlimit:10;}
	.st19{fill:#FFFFFF;stroke:#231F20;stroke-width:6;stroke-miterlimit:10;}
	.st20{fill:#FFFFFF;stroke:#231F20;stroke-width:5.5;stroke-miterlimit:10;}
</style>
<g id="Layer_2">
	<ellipse class="st0" cx="465.62" cy="270.12" rx="233.12" ry="232.09"/>
	<path class="st1" d="M403.11,493.92c0,0-13.11-93.92,1.89-140.92"/>
	<path class="st1" d="M581,344c0,0-56.89,78.28-45.94,147.14"/>
	<circle class="st2" cx="591.25" cy="290" r="52.5"/>
	<circle class="st2" cx="412.5" cy="302.5" r="52.5"/>
	<path class="st3" d="M715,841H295c-1.66,0-3-1.34-3-3V508c0-1.66,1.34-3,3-3h420c1.66,0,3,1.34,3,3v330
		C718,839.66,716.66,841,715,841z"/>
	<path class="st4" d="M693.4,504.77L807.5,373.5l10-53.99c0-0.01,0.01-0.02,0.02-0.02l90.78-34.92c0.05-0.02,0.09,0.04,0.05,0.08
		l-58.83,61.82c-0.01,0.01-0.01,0.03,0,0.04l26.96,20.97c0.01,0.01,0.02,0.01,0.03,0l56.82-55.83c0.04-0.04,0.1,0,0.08,0.05
		l-25.92,69.78c0,0.01-0.01,0.01-0.01,0.01l-59.99,24L719.34,546.19l0.15-38.64c0.01-1.67-1.36-3.03-3.03-3.01L693.4,504.77z"/>
	<path class="st5" d="M821,321c0,0,2.5,17.5,2,18c29.5-23.5,72.5-44.5,72.5-44.5l1.56-4.19L821,321z"/>
	<path class="st6" d="M292,662c-125-44-208-210-57.84-363c0,0,6.33,36.28,14.8,57C197,413,169,515,292.36,598.72L292,662z"/>
	<path class="st5" d="M203.5,417.5c0,0,2.5-29.5,22-56c8.5-6.5,6,6,6,6S215,387,203.5,417.5z"/>
	<path class="st7" d="M195.34,340.53c0,0,0.52,42.65,36.09,35.06"/>
	<path class="st7" d="M166.34,401.53c0,0,8.52,30.65,44.09,23.06"/>
	<path class="st7" d="M154.34,455.53c0,0,13.52,17.65,49.09,10.06"/>
	<path class="st5" d="M201,486c0,0-6,15,30,72c6,5,5-3,5-3L201,486z"/>
	<path class="st7" d="M160.34,522.53c0,0,39.16,16.97,59.09-1.94"/>
	<path class="st7" d="M241.74,556.04c0,0-16.75,37.35-49.49,29.9"/>
	<path class="st7" d="M263.39,649.87c0,0,42.61-13.87,28.61-50.87"/>
	<path class="st8" d="M714,841c35,46,39.5,96.5,7,122c-51.5,15.5-135-12-135-12c-18,8-73.81-26.32-74-27c0,0,24-35-12-83H714z"/>
	<path class="st9" d="M584,951c45-42-5.08-111.4-5.08-111.4"/>
	<circle class="st2" cx="558.5" cy="892.5" r="34.5"/>
	<path class="st9" d="M586.2,845.82c0,0,106.3,45.68,126.55-3.12"/>
	<path class="st5" d="M605.45,868.69c-1.26-1.83-1.35-4.31-0.14-6.17c1.19-1.83,3.44-2.83,7.69,0.48c13.5,10.5,13.5,50.5,11,65
		l-11.5-5.5C612.5,922.5,613.39,880.24,605.45,868.69z"/>
	<path class="st7" d="M234.16,299c0,0,6.33,36.28,14.8,57C197,413,169,515,292.36,598.72L292,662"/>
	<path class="st9" d="M599.5,882.5c0,0,83,40,137-2"/>
	<path class="st4" d="M286.53,511.17L152,712l-47.99,31.99C104,744,104,744,104,744.01l-14.96,75.78c-0.01,0.05,0.06,0.08,0.09,0.04
		l43.85-57.81c0.01-0.01,0.02-0.01,0.03-0.01l26.96,17.98c0.01,0.01,0.01,0.02,0.01,0.03l-18.94,61.82
		c-0.01,0.05,0.04,0.08,0.08,0.05l49.86-41.88c0.01,0,0.01-0.01,0.01-0.02l5-70.99l96.18-145.66l-0.16-70.51
		C292.02,509.87,288.18,508.71,286.53,511.17z"/>
	<path class="st9" d="M602.5,920.5c0,0,62.5,50.5,141,7"/>
	<path class="st10" d="M500,841c32.5,44.5,20,85-8,104c-51.5,15.5-137-2-137-2c-19.5,2.5-110.5-96.5-110.5-96.5s-18-15-7-46
		c0,0,14.05-18.68,54.02-20.84l-0.02,57.85c0,1.65,1.34,3,2.99,3L500,841z"/>
	<circle class="st11" cx="333.5" cy="879" r="32.5"/>
	<path class="st11" d="M306,840.5c0.36,0-7.15,0-11.5,0c-1.66,0-3-1.34-3-3c0-6.24,0.02-20.07,0.11-20.3
		c-3.9-2.04-8.36-3.2-13.11-3.2c-15.19,0-27.5,11.86-27.5,26.5s12.31,26.5,27.5,26.5S306,855.14,306,840.5z"/>
	<path class="st7" d="M237,802c0,0,31.06,0.46,54.03,11.73"/>
	<path class="st7" d="M291.5,784.5c0,0-26.01,6.69-32.01,20.85"/>
	<path class="st9" d="M345.22,940.24C365,931,398,889,345,842"/>
	<path class="st5" d="M273.15,533.41c0,0,11.38-10.09,7.85,7.59c-3,15-64,102-72.11,114.68c-0.94,1.47-2.08,2.79-3.35,3.98
		c-3.05,2.86-7.6,5.4-5.54-7.67C203,633,273.15,533.41,273.15,533.41"/>
	<path class="st9" d="M497,845c-32,34-140.28,4.65-140.28,4.65"/>
	<path class="st5" d="M388,867c0,0-8.5-11.52-10,2c-1,9,5,33,0,48l11,5C393,911,399,886,388,867z"/>
	<path class="st9" d="M372,882c0,0,91,41,144.28-4.58"/>
	<path class="st9" d="M366,916c0,0,67,44,148,1"/>
	<path class="st4" d="M908.35,284.66l-58.83,61.82c-0.01,0.01-0.01,0.03,0,0.04"/>
	<path class="st4" d="M817.51,319.49l90.78-34.92c0.05-0.02,0.09,0.04,0.05,0.08"/>
	<path class="st4" d="M807.5,373.5l10-53.99c0-0.01,0.01-0.02,0.02-0.02"/>
	<path class="st7" d="M292.02,512.83c-0.01-2.96-3.84-4.12-5.49-1.66L152,712l-47.99,31.99"/>
</g>
<g id="Layer_3">
	<path class="st12" d="M678,586"/>
	<path class="st13" d="M448,571c0,0,22,33,103,8"/>
	<path class="st5" d="M672.5,545.5c0,0-6.24,41.04,3,45c6.32,2.71,17.53-10.07,10.08-44.95c-1.48-6.92-7.83-11.71-14.89-11.2
		l-37.79,2.7c-3.26,0.23-3.29,5.02-0.03,5.28L672.5,545.5z"/>
	<ellipse class="st5" cx="679" cy="609.5" rx="9" ry="8.5"/>
	<path class="st14" d="M560.34,879.29l6.16-4.79c0,0,9,9,6,13c-5.29-4.76-9.18-6.16-11.67-6.43
		C559.94,880.98,559.63,879.84,560.34,879.29z"/>
	<ellipse class="st15" cx="571.25" cy="893.5" rx="3.75" ry="4"/>
	<path class="st16" d="M334,866c0,0,3.9-12.68,13.63,3.38c0.22,0.36,0.19,0.84-0.09,1.17L344,874.8c-0.46,0.55-1.32,0.45-1.65-0.18
		C339.21,868.61,334,866,334,866z"/>
	<ellipse class="st16" cx="352" cy="880" rx="3.5" ry="4.5"/>
	<path class="st16" d="M334,866c0,0,3.9-12.68,13.63,3.38c0.22,0.36,0.19,0.84-0.09,1.17L344,874.8c-0.46,0.55-1.32,0.45-1.65-0.18
		C339.21,868.61,334,866,334,866z"/>
	<ellipse class="st16" cx="352" cy="880" rx="3.5" ry="4.5"/>
	<path class="st16" d="M277,832.6c0,0,4.53-11.62,15.83,3.1c0.26,0.33,0.22,0.77-0.1,1.07l-4.12,3.9c-0.53,0.5-1.53,0.41-1.91-0.16
		C283.05,834.99,277,832.6,277,832.6z"/>
	<ellipse class="st16" cx="293" cy="842" rx="3.5" ry="4.5"/>
	<circle class="st5" cx="636" cy="188" r="10"/>
	<path class="st5" d="M527.97,114.53c-2.97-1.53-5.62-3.68-7.59-6.38c-3.56-4.88-5.27-11.88,12.62-13.15
		c26.21-1.87,70.81,32.17,84.62,55.4c2.24,3.77,3.37,8.14,2.87,12.49c-0.75,6.49-4.65,12.07-15.05,5.53
		c-1.98-1.25-3.75-2.82-5.32-4.55C581.1,142.86,558.43,130.27,527.97,114.53z"/>
	<ellipse class="st17" cx="622" cy="291.5" rx="4" ry="4.5"/>
	<path class="st18" d="M610,264c0,0,5.53,3.29,10,10c1.21,1.81-1.23,3.99-3.35,5.43c-1.02,0.69-2.41,0.24-2.86-0.91
		c-0.75-1.92-4.09-4.72-10.8-7.51C603,260,610,264,610,264z"/>
	<path class="st19" d="M425,272c0,0,13,5,12,16c-0.18,1.99-3,3-3,3s-7-8-12-7C422,278,425,272,425,272z"/>
	<ellipse class="st20" cx="440.5" cy="303.5" rx="5.5" ry="4.5"/>
</g>
</svg>
